<?xml version="1.0" encoding="iso-8859-1"?>
<!-- Generator: Adobe Illustrator 19.0.0, SVG Export Plug-In . SVG Version: 6.00 Build 0)  -->
<svg version="1.1" id="Layer_1" xmlns="http://www.w3.org/2000/svg" xmlns:xlink="http://www.w3.org/1999/xlink" x="0px" y="0px"
	 viewBox="0 0 286.89 286.89" style="enable-background:new 0 0 286.89 286.89;" xml:space="preserve">
<g>
	<g>
		<g>
			<g id="XMLID_26_">
				<g>
					<path style="fill:#c9ad7a;" stroke="#c9ad7a" stroke-width="10" d="M110.755,182.592L50.37,242.946l-8.737-8.768l60.602-60.602
						C104.896,176.736,107.75,179.741,110.755,182.592z"/>
					<path style="fill:#c9ad7a;" stroke="#c9ad7a" stroke-width="10" d="M182.448,186.991c44.243,0,80.245-36.002,80.245-80.214c0-44.243-36.002-80.214-80.245-80.214
						c-44.212,0-80.214,35.971-80.214,80.214C102.235,150.99,138.236,186.991,182.448,186.991z M182.448,18.384
						c48.767,0,88.424,39.658,88.424,88.393s-39.658,88.393-88.424,88.393c-48.736,0-88.393-39.658-88.393-88.393
						S133.713,18.384,182.448,18.384z"/>

	
				</g>
			</g>
		</g>
	</g>
</g>
<g>
</g>
<g>
</g>
<g>
</g>
<g>
</g>
<g>
</g>
<g>
</g>
<g>
</g>
<g>
</g>
<g>
</g>
<g>
</g>
<g>
</g>
<g>
</g>
<g>
</g>
<g>
</g>
<g>
</g>
</svg>
